<?xml version="1.0" encoding="UTF-8"?>
<svg xmlns="http://www.w3.org/2000/svg" xmlns:xlink="http://www.w3.org/1999/xlink" width="9px" height="9px" viewBox="0 0 9 9" version="1.1">
<g id="surface1">
<path style=" stroke:none;fill-rule:nonzero;fill:rgb(0%,0%,0%);fill-opacity:1;" d="M 7.71875 0 L 1.28125 0 C 0.574219 0 0 0.574219 0 1.28125 L 0 7.71875 C 0 8.425781 0.574219 9 1.28125 9 L 7.71875 9 C 8.425781 9 9 8.425781 9 7.71875 L 9 1.28125 C 9 0.574219 8.425781 0 7.71875 0 Z M 8.273438 7.71875 C 8.273438 8.023438 8.023438 8.273438 7.71875 8.273438 L 1.28125 8.273438 C 0.976562 8.273438 0.726562 8.023438 0.726562 7.71875 L 0.726562 1.28125 C 0.726562 0.976562 0.976562 0.726562 1.28125 0.726562 L 7.71875 0.726562 C 8.023438 0.726562 8.273438 0.976562 8.273438 1.28125 Z M 8.273438 7.71875 "/>
<path style=" stroke:none;fill-rule:nonzero;fill:rgb(0%,0%,0%);fill-opacity:1;" d="M 6.339844 4.136719 L 2.660156 4.136719 C 2.460938 4.136719 2.296875 4.300781 2.296875 4.5 C 2.296875 4.699219 2.460938 4.863281 2.660156 4.863281 L 6.339844 4.863281 C 6.539062 4.863281 6.703125 4.699219 6.703125 4.5 C 6.703125 4.300781 6.539062 4.136719 6.339844 4.136719 Z M 6.339844 4.136719 "/>
</g>
</svg>
