<svg width="32" height="32" xmlns="http://www.w3.org/2000/svg" version="1.1">

 <g>
  <title>Layer 1</title>
  <g transform="rotate(-90 16.0059 16.0059)" id="surface1">
   <path id="svg_1" fill="rgb(0%,0%,0%)" fill-rule="nonzero" d="m31.99219,15.95703c-0.28906,-0.39062 -1.88281,-0.90625 -4.78516,-1.55078l-5.86719,-0.53516l-3.73437,-1.0664l-1.06641,0l-4.88672,-5.86719l1.15235,0c0.28906,0 0.53906,-0.02734 0.75,-0.07812c0.21094,-0.04688 0.3164,-0.11329 0.3164,-0.19141c0,-0.07813 -0.10546,-0.14063 -0.3164,-0.19141c-0.21094,-0.05078 -0.46094,-0.07422 -0.75,-0.07422l-5.33594,0l0,0.53516l1.06641,0l0,6.93359l-2.66797,0l-3.19922,-3.73437l-1.60156,0l-0.53125,0.53516l0,3.19921l0.53125,0l0,0.53516l2.13672,0l0,0.13281l-3.20313,0.39844l0,2.13672l3.20313,0.39844l0,0.13281l-2.13672,0l0,0.53516l-0.53125,0l0,3.19921l0.53125,0.53516l1.60156,0l3.19922,-3.73437l2.66797,0l0,6.93359l-1.06641,0l0,0.53516l5.33594,0c0.28906,0 0.53906,-0.02735 0.75,-0.07422c0.21094,-0.05078 0.3164,-0.11719 0.3164,-0.19532c0,-0.07812 -0.10546,-0.14062 -0.3164,-0.1914c-0.21094,-0.05078 -0.46094,-0.07422 -0.75,-0.07422l-1.15235,0l4.88672,-5.86719l1.06641,0l3.73437,-1.0664l5.86719,-0.53516c3.19141,-0.71094 4.79297,-1.24609 4.80469,-1.60156l-0.01953,-0.04688zm0,0"/>
  </g>
 </g>
</svg>