<?xml version="1.0" encoding="UTF-8"?>
<svg xmlns="http://www.w3.org/2000/svg" xmlns:xlink="http://www.w3.org/1999/xlink" width="9px" height="9px" viewBox="0 0 9 9" version="1.1">
<g id="surface1">
<path style=" stroke:none;fill-rule:evenodd;fill:rgb(0%,0%,0%);fill-opacity:1;" d="M 7.875 0.5625 L 1.125 0.5625 C 0.8125 0.5625 0.5625 0.8125 0.5625 1.125 L 0.5625 7.875 C 0.5625 8.1875 0.8125 8.4375 1.125 8.4375 L 7.875 8.4375 C 8.1875 8.4375 8.4375 8.1875 8.4375 7.875 L 8.4375 1.125 C 8.4375 0.8125 8.1875 0.5625 7.875 0.5625 Z M 1.125 0 C 0.503906 0 0 0.503906 0 1.125 L 0 7.875 C 0 8.496094 0.503906 9 1.125 9 L 7.875 9 C 8.496094 9 9 8.496094 9 7.875 L 9 1.125 C 9 0.503906 8.496094 0 7.875 0 Z M 1.125 0 "/>
<path style=" stroke:none;fill-rule:evenodd;fill:rgb(0%,0%,0%);fill-opacity:1;" d="M 4.5 2.25 C 4.65625 2.25 4.78125 2.375 4.78125 2.53125 L 4.78125 4.21875 L 6.46875 4.21875 C 6.625 4.21875 6.75 4.34375 6.75 4.5 C 6.75 4.65625 6.625 4.78125 6.46875 4.78125 L 4.78125 4.78125 L 4.78125 6.46875 C 4.78125 6.625 4.65625 6.75 4.5 6.75 C 4.34375 6.75 4.21875 6.625 4.21875 6.46875 L 4.21875 4.78125 L 2.53125 4.78125 C 2.375 4.78125 2.25 4.65625 2.25 4.5 C 2.25 4.34375 2.375 4.21875 2.53125 4.21875 L 4.21875 4.21875 L 4.21875 2.53125 C 4.21875 2.375 4.34375 2.25 4.5 2.25 Z M 4.5 2.25 "/>
</g>
</svg>
