<?xml version="1.0" encoding="UTF-8"?>
<!DOCTYPE svg PUBLIC "-//W3C//DTD SVG 1.1//EN" "http://www.w3.org/Graphics/SVG/1.1/DTD/svg11.dtd">
<svg xmlns="http://www.w3.org/2000/svg" version="1.1" width="1272px" height="668px" style="shape-rendering:geometricPrecision; text-rendering:geometricPrecision; image-rendering:optimizeQuality; fill-rule:evenodd; clip-rule:evenodd" xmlns:xlink="http://www.w3.org/1999/xlink">
<g><path style="opacity:1" fill="#090a09" d="M 1260.5,41.5 C 1261.83,42.1667 1261.83,42.1667 1260.5,41.5 Z"/></g>
<g><path style="opacity:1" fill="#fefffe" d="M 389.5,75.5 C 393.884,75.1744 398.217,75.5078 402.5,76.5C 435.248,124.327 467.748,172.327 500,220.5C 502.167,224 505,226.833 508.5,229C 718.777,260.9 929.777,292.234 1141.5,323C 1153.19,324.113 1164.85,325.279 1176.5,326.5C 1176.5,330.833 1176.5,335.167 1176.5,339.5C 1142.19,344.311 1108.19,349.645 1074.5,355.5C 953.207,371.281 831.873,389.115 710.5,409C 702.142,409.376 693.809,410.043 685.5,411C 629.233,420.292 572.567,428.958 515.5,437C 508.98,443.03 503.313,449.863 498.5,457.5C 464.94,498.569 432.274,540.402 400.5,583C 395.167,583.667 389.833,583.667 384.5,583C 351.351,529.838 317.351,477.171 282.5,425C 215.658,390.912 148.325,357.912 80.5,326C 79.2175,323.205 79.2175,320.372 80.5,317.5C 135.151,295.019 189.817,272.186 244.5,249C 257.983,241.824 271.649,235.157 285.5,229C 294.718,217.449 303.552,205.616 312,193.5C 338.12,154.233 363.953,114.9 389.5,75.5 Z M 393.5,142.5 C 394.822,142.33 395.989,142.663 397,143.5C 423.401,182.234 449.401,221.234 475,260.5C 477.286,264.032 479.952,264.698 483,262.5C 485.857,265.601 488.857,266.268 492,264.5C 577.421,277.966 663.254,290.799 749.5,303C 809.181,314.145 869.181,323.145 929.5,330C 935.126,330.687 940.459,332.187 945.5,334.5C 944.18,336.27 942.68,336.603 941,335.5C 928.931,337.949 916.765,340.115 904.5,342C 775.054,359.348 645.72,377.681 516.5,397C 508.42,398.21 500.42,398.877 492.5,399C 463.154,436.435 434.321,474.268 406,512.5C 403.02,516.647 399.52,520.314 395.5,523.5C 390.768,517.717 386.268,511.717 382,505.5C 358.814,468.321 335.647,431.154 312.5,394C 278.801,378.274 245.134,362.608 211.5,347C 196.74,339.786 182.073,332.286 167.5,324.5C 171.866,321.536 176.533,319.036 181.5,317C 226.958,300.133 271.625,281.633 315.5,261.5C 315.687,259.436 316.187,257.436 317,255.5C 342.503,217.824 368.003,180.157 393.5,142.5 Z"/></g>
<g><path style="opacity:1" fill="#040504" d="M 816.5,115.5 C 817.833,116.167 817.833,116.167 816.5,115.5 Z"/></g>
<g><path style="opacity:1" fill="#010201" d="M 688.5,118.5 C 689.833,119.167 689.833,119.167 688.5,118.5 Z"/></g>
<g><path style="opacity:1" fill="#fefffe" d="M 552.5,165.5 C 553.833,166.167 553.833,166.167 552.5,165.5 Z"/></g>
<g><path style="opacity:1" fill="#fefffe" d="M 826.5,238.5 C 827.833,239.167 827.833,239.167 826.5,238.5 Z"/></g>
<g><path style="opacity:1" fill="#f1f2f1" d="M 304.5,621.5 C 305.833,622.167 305.833,622.167 304.5,621.5 Z"/></g>
<g><path style="opacity:1" fill="#030303" d="M 35.5,644.5 C 35.8966,643.475 36.5632,643.308 37.5,644C 36.9056,644.464 36.2389,644.631 35.5,644.5 Z"/></g>
</svg>
